<svg width="356" height="409" viewBox="0 0 356 409" fill="none" xmlns="http://www.w3.org/2000/svg">
<path d="M29.3997 312.175L117.753 400.953C125.232 407.915 139.189 406.43 155.205 403.85C179.09 399.983 198.849 396.212 198.459 369.79C198.312 359.909 196.341 349.359 193.892 341.765C197.93 341.544 201.459 340.111 205.68 338.383L280.474 384.199C289.019 388.036 299.725 388.103 313.911 384.78C317.911 383.846 321.779 382.912 325.456 381.846C326.647 381.493 327.838 381.141 329.037 380.751C331.552 379.913 333.971 378.979 336.163 377.884C337.552 377.237 338.869 376.494 340.097 375.722C340.773 375.303 341.42 374.855 342.031 374.399C343.156 373.561 344.193 372.657 345.156 371.694C347.443 369.407 349.281 366.695 350.605 363.379C350.833 362.828 351.024 362.254 351.215 361.673C352.443 357.998 353.054 353.682 352.988 348.551C352.855 337.979 351.377 328.628 348.892 320.827C348.377 319.247 347.825 317.762 347.244 316.314C346.958 315.608 346.663 314.895 346.34 314.189C345.73 312.836 345.082 311.513 344.369 310.256C337.273 297.523 326.345 291.524 313.896 294.457H313.866C313.256 294.619 312.638 294.78 312.028 294.942C311.675 295.075 311.351 295.17 310.999 295.295C310.579 295.427 310.16 295.582 309.741 295.744C309.609 295.81 309.484 295.839 309.351 295.905C308.77 296.133 308.189 296.391 307.609 296.677C307.513 296.707 307.417 296.773 307.322 296.81C306.873 297.037 306.388 297.258 305.932 297.515C304.998 298.03 304.093 298.581 303.189 299.162C302.579 299.581 301.961 300 301.38 300.449C300.093 301.382 298.799 302.478 297.541 303.639L297.446 303.573C297.35 303.544 297.255 303.478 297.122 303.411C297.027 303.345 296.894 303.279 296.769 303.183L290.482 299.508L251.883 277.041L249.272 275.526L247.728 274.622L247.052 274.233L246.728 274.041L244.368 272.586C257.053 270.233 267.171 264.036 271.399 256.214C271.348 256.302 271.289 256.383 271.238 256.464C271.48 256.074 271.73 255.692 271.966 255.28C281.503 238.878 271.355 217.706 256.655 201.275C259.428 190.379 258.038 181.749 254.464 172.662C248.052 156.488 234.58 138.925 224.873 104.96C208.335 47.0512 200.474 43.7356 195.216 44.831V44.8163C191.002 32.8625 183.244 22.5922 173.229 15.2111C162.838 7.55069 150.006 3 136.108 3C135.042 3 133.983 3.03676 132.931 3.08822C132.85 3.08822 132.769 3.09557 132.681 3.10292C131.755 3.15439 130.835 3.22055 129.923 3.30877C129.74 3.32347 129.556 3.34553 129.372 3.36758C128.526 3.4558 127.688 3.56608 126.85 3.69106C126.681 3.71311 126.511 3.73517 126.35 3.76457C124.335 4.0807 122.357 4.48504 120.415 4.98495H120.401C119.474 5.22756 118.555 5.49222 117.643 5.77158C117.444 5.83039 117.246 5.89656 117.047 5.96272C116.319 6.19063 115.599 6.44058 114.885 6.69789C114.657 6.77876 114.429 6.86698 114.194 6.94785C113.481 7.21251 112.775 7.49187 112.076 7.78594C111.885 7.86681 111.694 7.94032 111.51 8.02119C109.753 8.77106 108.039 9.59445 106.363 10.4987C106.135 10.6237 105.907 10.756 105.679 10.881C105.098 11.2045 104.517 11.5353 103.943 11.8735C103.649 12.0499 103.362 12.2263 103.068 12.4101C102.568 12.7189 102.068 13.0424 101.575 13.3659C101.274 13.5644 100.965 13.7702 100.663 13.9687C100.178 14.3069 99.6928 14.6524 99.2148 14.9979C98.9354 15.2038 98.6559 15.3949 98.3765 15.6081C97.6853 16.1301 97.0014 16.6668 96.3248 17.2181C96.0013 17.4828 95.6851 17.7622 95.3615 18.0415C94.9939 18.3503 94.6262 18.6664 94.2732 18.9825C93.9055 19.3134 93.5452 19.6515 93.1849 19.9897C92.8907 20.2617 92.5966 20.5411 92.3098 20.8205C91.9274 21.188 91.5597 21.563 91.1847 21.9379C90.942 22.1879 90.7067 22.4378 90.4714 22.6878C90.0743 23.1068 89.6845 23.5259 89.3022 23.9523C89.1772 24.0919 89.0521 24.2463 88.9271 24.386C87.4785 26.0328 86.1254 27.7531 84.8532 29.5469C84.765 29.6792 84.6694 29.8042 84.5812 29.9292C84.1767 30.5026 83.787 31.0907 83.4046 31.6789C83.3237 31.8112 83.2354 31.9362 83.1545 32.0685C82.7575 32.6934 82.3677 33.3183 81.9927 33.9579C81.978 33.9799 81.9633 34.002 81.9559 34.0241C79.4557 38.288 77.4408 42.8681 75.9921 47.6982C60.4319 50.9255 53.6593 77.7665 36.9666 116.944C28.6202 136.506 -3.93414 175.977 5.99322 199.209C5.41228 208.104 4.44896 220.477 5.50788 232.468C5.50788 232.468 -0.705913 287.907 29.363 312.16L29.3997 312.175ZM327.235 320.445C327.235 325.025 324.787 329.473 321.757 330.341C318.727 331.245 316.278 328.245 316.278 323.636C316.278 319.056 318.727 314.645 321.757 313.74C324.787 312.873 327.235 315.865 327.235 320.445ZM336.971 331.664C333.942 332.568 331.456 329.569 331.456 324.989C331.456 320.408 333.942 315.961 336.971 315.056C340.001 314.189 342.45 317.181 342.45 321.761C342.45 326.341 340.001 330.789 336.971 331.656V331.664ZM304.564 363.872C304.564 354.939 312.241 340.728 321.749 337.95C331.265 335.178 338.972 344.912 338.972 353.844C338.972 362.739 331.265 357.549 321.749 360.321C312.234 363.092 304.564 372.767 304.564 363.864V363.872ZM301.049 333.862C301.049 329.253 303.498 324.834 306.528 323.93C309.557 323.062 312.043 326.055 312.043 330.635C312.043 335.215 309.557 339.662 306.528 340.53C303.498 341.434 301.049 338.435 301.049 333.855V333.862Z" fill="white"/>
<path d="M195.238 44.8312C186.635 20.4751 163.419 3.02222 136.108 3.02222C108.797 3.02222 84.1549 21.5558 76.213 47.0734" stroke="black" stroke-width="4.52" stroke-linecap="round" stroke-linejoin="round"/>
<path d="M165.537 76.2373C165.537 91.2201 177.693 103.365 192.679 103.365C196.297 103.365 199.746 102.652 202.901 101.373C200.511 89.7938 199.092 77.6121 198.687 64.7393C198.614 59.4388 197.878 54.2852 196.555 49.3743C195.29 49.1905 194.003 49.095 192.679 49.095C177.693 49.095 165.537 61.2473 165.537 76.23V76.2373Z" fill="#C0DB7E"/>
<path d="M127.21 91.117C127.21 93.5798 125.217 95.5721 122.754 95.5721C120.29 95.5721 118.297 93.5798 118.297 91.117C118.297 88.6542 120.29 86.6619 122.754 86.6619C125.217 86.6619 127.21 88.6542 127.21 91.117Z" fill="black"/>
<path d="M185.326 89.8157C185.326 92.2785 183.333 94.2708 180.869 94.2708C178.406 94.2708 176.413 92.2785 176.413 89.8157C176.413 87.3529 178.406 85.3606 180.869 85.3606C183.333 85.3606 185.326 87.3529 185.326 89.8157Z" fill="black"/>
<path d="M158.419 121.185C152.492 121.597 143.175 113.687 142.858 105.343C142.542 96.9984 172.221 95.8662 172.729 104.203C173.236 112.54 164.353 120.774 158.419 121.193V121.185Z" fill="black"/>
<path d="M190.856 116.863C181.892 126.743 168.942 132.948 154.544 132.948C140.109 132.948 127.122 126.707 118.158 116.774" stroke="black" stroke-width="4.52" stroke-linecap="round" stroke-linejoin="round"/>
<path d="M83.4487 153.702C136.108 164.619 186.877 163.649 219.814 150.004" stroke="black" stroke-width="4.52" stroke-linecap="round" stroke-linejoin="round"/>
<path d="M76.0586 173.39C139.557 186.159 191.429 184.733 230.367 168.515" stroke="black" stroke-width="4.52" stroke-linecap="round" stroke-linejoin="round"/>
<path d="M288.077 315.372C294.968 304.286 304.005 296.773 313.903 294.449C335.493 289.384 352.51 311.057 352.995 348.543C353.34 374.95 335.493 379.721 313.903 384.787C299.733 388.11 289.026 388.044 280.466 384.213L205.68 338.648" stroke="black" stroke-width="4.52" stroke-linecap="round" stroke-linejoin="round"/>
<path d="M331.471 324.974C331.471 329.561 333.927 332.561 336.964 331.678C339.994 330.796 342.457 326.363 342.457 321.776C342.457 317.188 340.001 314.189 336.964 315.071C333.934 315.953 331.471 320.386 331.471 324.974Z" fill="black"/>
<path d="M316.264 323.643C316.264 328.23 318.72 331.23 321.757 330.348C324.787 329.466 327.25 325.033 327.25 320.445C327.25 315.858 324.794 312.858 321.757 313.74C318.728 314.623 316.264 319.056 316.264 323.643Z" fill="black"/>
<path d="M301.057 333.84C301.057 338.427 303.513 341.427 306.55 340.545C309.579 339.662 312.043 335.229 312.043 330.642C312.043 326.054 309.587 323.055 306.55 323.937C303.513 324.819 301.057 329.252 301.057 333.84Z" fill="black"/>
<path d="M304.55 363.857C304.55 372.774 312.249 363.077 321.757 360.313C331.258 357.542 338.965 362.754 338.965 353.829C338.965 344.911 331.258 335.178 321.757 337.949C312.256 340.721 304.55 354.939 304.55 363.864V363.857Z" fill="black"/>
<path d="M297.556 303.632C297.027 303.088 243.559 272.218 243.559 272.218" stroke="black" stroke-width="4.52" stroke-linecap="round" stroke-linejoin="round"/>
<path d="M5.38319 230.24C3.22123 280.989 13.0751 295.92 30.834 313.608L47.3722 330.231L29.4074 312.175L117.739 400.961C125.21 407.908 139.197 406.431 155.205 403.843C179.09 399.991 198.827 396.227 198.452 369.797C197.915 332.289 179.09 309.653 155.205 313.506C141.859 315.66 129.924 325.592 121.989 340.501" stroke="black" stroke-width="4.52" stroke-linecap="round" stroke-linejoin="round"/>
<path d="M150.006 144.013C153.896 142.16 153.705 136.911 152.102 135.088C151.646 134.566 150.521 132.816 150.521 131.368C150.521 128.001 153.661 125.097 157.536 124.876C161.412 124.656 164.552 127.199 164.552 130.566C164.552 131.838 164.096 133.044 163.331 134.066C160.309 137.168 161.375 141.807 165.066 143.145L184.348 142.035V161.458C182.811 165.266 178.148 166.612 175.236 163.73C174.266 163.009 173.096 162.62 171.832 162.693C168.493 162.884 165.787 166.207 165.787 170.104C165.787 174 168.493 177.014 171.832 176.823C173.273 176.742 175.067 175.507 175.611 175.015C177.509 173.294 182.73 172.802 184.348 176.625V196.048L130.74 199.128V145.108L150.021 143.998L150.006 144.013Z" fill="#915EB1" stroke="black" stroke-width="4.52" stroke-linecap="round" stroke-linejoin="round"/>
<path d="M193.893 341.772C216.343 337.949 231.837 319.798 236.499 300.419" stroke="black" stroke-width="4.52" stroke-linecap="round" stroke-linejoin="round"/>
<path d="M195.238 44.8308C197.452 51.0797 198.694 57.7918 198.797 64.7759C200.077 105.688 211.703 139.52 231.315 169.875C238.205 179.668 247.397 191.026 255.648 200.172C255.979 200.539 256.325 200.921 256.663 201.296C259.428 190.416 258.075 181.77 254.486 172.691C248.074 156.488 234.595 138.925 224.888 104.953C208.372 47.073 200.474 43.7354 195.238 44.8234V44.8308Z" stroke="black" stroke-width="4.52" stroke-linecap="round" stroke-linejoin="round"/>
<path d="M123.46 254.501C135.49 247.392 146.675 241.253 154.014 236.982C161.353 241.253 172.538 247.392 184.568 254.501L208.115 204.811C192.907 197.253 179.31 189.872 177.472 188.461C165.537 179.322 155.279 192.276 164.427 199.878L171.074 205.075L160.382 198.863C158.103 197.474 155.941 196.937 154.007 196.996C152.08 196.937 149.918 197.474 147.631 198.863L136.939 205.075L143.587 199.878C152.735 192.283 142.484 179.322 130.541 188.461C128.696 189.872 115.106 197.253 99.8989 204.811L123.445 254.501H123.46Z" fill="white"/>
<path d="M82.3309 211.45C104.826 204.539 128.019 190.402 130.556 188.461C142.498 179.323 152.756 192.284 143.601 199.878L136.953 205.083L147.646 198.871C159.117 191.894 167.625 206.046 157.999 212.714L146.403 220.566L151.661 217.618C163.132 210.641 172.949 223.205 161.742 232.115C150.852 240.768 59.3068 295.56 19.5826 265.359C1.88252 251.906 4.84602 217.838 6.02995 199.224" stroke="black" stroke-width="4.52" stroke-linecap="round" stroke-linejoin="round"/>
<path d="M82.5517 47.6612C62.0646 44.1912 57.9539 73.0392 36.3196 116.01C20.4285 147.57 -17.9426 192.629 17.7003 210.993C17.7003 210.993 65.8884 237.908 89.9788 129.103C91.4643 122.398 114.731 53.1015 82.5517 47.6612Z" fill="#C0DB7E" stroke="black" stroke-width="4.52" stroke-linecap="round" stroke-linejoin="round"/>
<path d="M175.516 349.462C175.516 354.05 178.376 357.218 181.906 356.549C185.436 355.88 188.296 351.616 188.296 347.029C188.296 342.442 185.436 339.273 181.906 339.942C178.376 340.611 175.516 344.875 175.516 349.462Z" fill="black"/>
<path d="M157.809 347.073C157.809 351.66 160.669 354.829 164.199 354.16C167.729 353.491 170.589 349.227 170.589 344.64C170.589 340.052 167.729 336.884 164.199 337.553C160.669 338.222 157.809 342.486 157.809 347.073Z" fill="black"/>
<path d="M140.101 356.204C140.101 360.791 142.961 363.96 146.491 363.291C150.021 362.622 152.881 358.358 152.881 353.77C152.881 349.183 150.021 346.014 146.491 346.683C142.961 347.352 140.101 351.616 140.101 356.204Z" fill="black"/>
<path d="M144.175 386.47C144.175 395.388 153.139 386.235 164.199 384.125C175.258 382.023 184.223 387.764 184.223 378.847C184.223 369.929 175.258 359.659 164.199 361.761C153.139 363.864 144.175 377.553 144.175 386.47Z" fill="black"/>
<path d="M225.697 211.45C203.202 204.539 180.009 190.402 177.472 188.461C165.53 179.323 155.271 192.284 164.427 199.878L171.074 205.083L160.382 198.871C158.316 197.614 156.345 197.04 154.558 196.989" stroke="black" stroke-width="4.52" stroke-linecap="round" stroke-linejoin="round"/>
<path d="M153.72 237.474C178.244 254.221 248.611 295.493 271.988 255.309C281.525 238.908 271.385 217.72 256.663 201.296" stroke="black" stroke-width="4.52" stroke-linecap="round" stroke-linejoin="round"/>
</svg>
